<svg width="200" height="200" viewBox="0 0 200 200" fill="none" xmlns="http://www.w3.org/2000/svg">
<g clip-path="url(#clip0_501_580)">
<path d="M185.474 40.9075L113.728 3.60943C109.542 1.42356 104.759 0.269531 99.8859 0.269531C95.0125 0.269531 90.2297 1.42356 86.0441 3.60943L14.2843 40.9075C10.0413 43.1488 6.53558 46.3165 4.11046 50.1005C1.68534 53.8844 0.423884 58.1548 0.449604 62.4938V137.077C0.426376 141.414 1.68901 145.682 4.11402 149.464C6.53903 153.246 10.0434 156.411 14.2843 158.652L86.0297 195.936C90.2158 198.121 94.9984 199.275 99.8716 199.275C104.745 199.275 109.527 198.121 113.713 195.936L185.459 158.652C189.704 156.412 193.213 153.245 195.641 149.461C198.069 145.676 199.333 141.405 199.308 137.065V62.4938C199.334 58.1548 198.072 53.8844 195.648 50.1005C193.223 46.3165 189.717 43.1488 185.474 40.9075Z" fill="white"/>
<path d="M185.474 40.9075L113.728 3.60943C109.542 1.42356 104.759 0.269531 99.8859 0.269531C95.0125 0.269531 90.2297 1.42356 86.0441 3.60943L14.2843 40.9075C10.0413 43.1488 6.53558 46.3165 4.11046 50.1005C1.68534 53.8844 0.423884 58.1548 0.449604 62.4938V137.077C0.426376 141.414 1.68901 145.682 4.11402 149.464C6.53903 153.246 10.0434 156.411 14.2843 158.652L86.0297 195.936C90.2158 198.121 94.9984 199.275 99.8716 199.275C104.745 199.275 109.527 198.121 113.713 195.936L185.459 158.652C189.704 156.412 193.213 153.245 195.641 149.461C198.069 145.676 199.333 141.405 199.308 137.065V62.4938C199.334 58.1548 198.072 53.8844 195.648 50.1005C193.223 46.3165 189.717 43.1488 185.474 40.9075ZM88.5438 192.125L16.7984 154.84C13.3128 152.99 10.4331 150.382 8.43933 147.27C6.44553 144.157 5.40548 140.646 5.42035 137.077V62.4938C5.40409 58.925 6.44353 55.4131 8.43746 52.3005C10.4314 49.1877 13.3119 46.5802 16.7984 44.7316L88.5438 7.43357C91.9711 5.64317 95.8878 4.69789 99.8788 4.69789C103.87 4.69789 107.786 5.64317 111.214 7.43357L182.902 44.7316C185.821 46.2801 188.32 48.3677 190.223 50.8489C192.126 53.3301 193.388 56.1452 193.92 59.0974C191.536 54.6568 186.177 53.4366 179.928 56.5815L112.105 93.3639C103.643 97.6786 97.4078 102.547 97.3934 111.478V184.716C97.3934 190.063 99.8501 193.521 103.643 194.54C102.401 194.739 101.141 194.845 99.8788 194.855C95.8891 194.853 91.9738 193.909 88.5438 192.125Z" fill="#2F3A3E"/>
<path d="M166.668 144.281L148.797 153.641C148.563 153.723 148.36 153.863 148.215 154.044C148.071 154.225 147.988 154.439 147.979 154.66V158.773C147.979 159.276 148.366 159.478 148.84 159.239L166.985 149.577C167.202 149.435 167.369 149.241 167.466 149.018C167.563 148.795 167.585 148.553 167.531 148.319V144.709C167.516 144.244 167.1 144.043 166.668 144.281Z" fill="#3AB14A"/>
<path d="M128.626 109.828C129.201 109.576 129.675 109.828 129.69 110.545L129.747 116.005C131.897 115.149 134.293 114.895 136.614 115.275C137.059 115.375 137.247 115.904 137.074 116.533L135.709 121.325C135.606 121.688 135.392 122.018 135.091 122.282C134.985 122.373 134.865 122.45 134.732 122.509C134.569 122.585 134.382 122.612 134.2 122.584C131.937 122.145 129.569 122.478 127.577 123.514C126.15 124.078 124.933 124.982 124.067 126.123C123.2 127.265 122.719 128.597 122.678 129.968C122.678 132.484 124.115 133.175 129.129 133.251C135.752 133.351 138.625 135.88 138.697 141.729C138.619 144.746 137.792 147.711 136.274 150.421C134.756 153.129 132.583 155.516 129.904 157.416L130.019 162.775C130.015 163.103 129.916 163.424 129.733 163.71C129.55 163.995 129.287 164.236 128.972 164.41L125.351 166.234C124.776 166.486 124.302 166.234 124.287 165.529V160.259C121.184 161.391 118.039 161.656 116.027 160.951C115.653 160.825 115.481 160.334 115.639 159.768L116.947 154.925C117.045 154.542 117.27 154.192 117.593 153.919C117.695 153.833 117.811 153.761 117.937 153.706C118.031 153.669 118.131 153.65 118.232 153.65C118.334 153.65 118.434 153.669 118.527 153.706C121.087 154.313 123.819 154.01 126.126 152.863C127.76 152.172 129.147 151.105 130.137 149.774C131.127 148.444 131.683 146.902 131.744 145.314C131.744 142.597 130.034 141.466 125.998 141.44C120.782 141.44 115.941 140.559 115.84 133.893C115.9 131.016 116.685 128.186 118.141 125.607C119.597 123.028 121.685 120.762 124.259 118.973L124 113.489C123.999 113.156 124.095 112.83 124.278 112.539C124.462 112.249 124.727 112.004 125.049 111.828L128.626 109.828Z" fill="white"/>
</g>
<defs>
<clipPath id="clip0_501_580">
<rect width="200" height="200" fill="white"/>
</clipPath>
</defs>
</svg>
